/* XPM */
static char *twitux[] = {
/* columns rows colors chars-per-pixel */
"32 32 179 2",
"   c black",
".  c #010000",
"X  c #020000",
"o  c #030000",
"O  c #040000",
"+  c #050000",
"@  c #060000",
"#  c #070000",
"$  c #080000",
"%  c #090000",
"&  c #0A0000",
"*  c #0B0000",
"=  c #0C0000",
"-  c #0D0000",
";  c #0E0000",
":  c #100000",
">  c #110000",
",  c #120000",
"<  c #130000",
"1  c #140000",
"2  c #150000",
"3  c #160000",
"4  c #170000",
"5  c #180000",
"6  c #1A0000",
"7  c #1B0000",
"8  c #1C0000",
"9  c #1E0000",
"0  c #1F0000",
"q  c #200100",
"w  c #210100",
"e  c #230100",
"r  c #250100",
"t  c #260100",
"y  c #270100",
"u  c #280100",
"i  c #2B0100",
"p  c #2D0100",
"a  c #2E0100",
"s  c #2F0100",
"d  c #300100",
"f  c #310100",
"g  c #330100",
"h  c #350100",
"j  c #360100",
"k  c #370100",
"l  c #390100",
"z  c #3A0100",
"x  c #3C0100",
"c  c #400100",
"v  c #410100",
"b  c #420100",
"n  c #430100",
"m  c #440100",
"M  c #470100",
"N  c #480100",
"B  c #490100",
"V  c #4A0100",
"C  c #4B0100",
"Z  c #4C0100",
"A  c #4D0100",
"S  c #4E0100",
"D  c #4F0100",
"F  c #510100",
"G  c #520100",
"H  c #530100",
"J  c #540100",
"K  c #560100",
"L  c #580100",
"P  c #5A0100",
"I  c #5B0100",
"U  c #5D0100",
"Y  c #600200",
"T  c #620200",
"R  c #630200",
"E  c #650200",
"W  c #660200",
"Q  c #680200",
"!  c #690200",
"~  c #6A0200",
"^  c #6B0200",
"/  c #6C0200",
"(  c #6E0200",
")  c #700200",
"_  c #720200",
"`  c #740200",
"'  c #780200",
"]  c #7B0200",
"[  c #7C0200",
"{  c #7E0200",
"}  c #810200",
"|  c #820200",
" . c #840200",
".. c #870200",
"X. c #880200",
"o. c #8B0200",
"O. c #8E0200",
"+. c #900200",
"@. c #920200",
"#. c #930200",
"$. c #960200",
"%. c #9A0200",
"&. c #9B0200",
"*. c #9D0200",
"=. c #9F0300",
"-. c #A10300",
";. c #A20300",
":. c #A50300",
">. c #A80300",
",. c #A90300",
"<. c #AB0300",
"1. c #AC0300",
"2. c #AE0300",
"3. c #AF0300",
"4. c #B10300",
"5. c #B30300",
"6. c #B60300",
"7. c #B70300",
"8. c #B80300",
"9. c #BA0300",
"0. c #BB0300",
"q. c #BC0300",
"w. c #BE0300",
"e. c #BF0300",
"r. c #C00300",
"t. c #C30300",
"y. c #C50300",
"u. c #C70300",
"i. c #C80300",
"p. c #C90300",
"a. c #CA0300",
"s. c #CB0300",
"d. c #CC0300",
"f. c #CD0300",
"g. c #CE0300",
"h. c #CF0300",
"j. c #D00300",
"k. c #D10300",
"l. c #D20300",
"z. c #D40300",
"x. c #D50300",
"c. c #D60300",
"v. c #D70300",
"b. c #D80300",
"n. c #D90300",
"m. c #DA0300",
"M. c #DC0300",
"N. c #DD0400",
"B. c #DE0400",
"V. c #DF0400",
"C. c #E00400",
"Z. c #E20400",
"A. c #E30400",
"S. c #E40400",
"D. c #E50400",
"F. c #E60400",
"G. c #E70400",
"H. c #E80400",
"J. c #E90400",
"K. c #EA0400",
"L. c #EC0400",
"P. c #ED0400",
"I. c #EE0400",
"U. c #EF0400",
"Y. c #F00400",
"T. c #F10400",
"R. c #F20400",
"E. c #F30400",
"W. c #F40400",
"Q. c #F50400",
"!. c #F60400",
"~. c #F70400",
"^. c #F80400",
"/. c #F90400",
"(. c #FA0400",
"). c #FB0400",
"_. c #FC0400",
"`. c gray100",
"'. c None",
/* pixels */
"'.'.'.'.'.'.'.'.'.'.'.          '.  3 ,   '.'.'.'.'.'.'.'.'.'.'.",
"'.'.'.'.'.'.'.'.'.'.'.  / >.-.$.} S b L.] + '.'.'.'.'.'.'.'.'.'.",
"'.'.'.'.'.'.'.'.'.'.    a T._._._._.L.3._ 6 ;     '.'.'.'.'.'.'.",
"'.'.'.'.'.'.'.'.'.  G u._.)._._.~._ Q :.h.T._.-.  '.'.'.'.'.'.'.",
"'.'.'.'.'.'.'.'.  3 _ ~.T.x._._.~.).n.n._.8.F.]       '.'.'.'.'.",
"    '.'.'.'.'.'.'.  G _._._._._.~.Q _ b e.U L.F.u.2._ l +     '.",
"  8     '.'.'.'.'.# n._._._._._.e.x._.Z.a T.)._._._._._.K.@.,   ",
"  , W     '.'.'.  Q _.L.k._._._.).)._._._ 6._._._._._._.)._.t.  ",
"'.  x >.6   '.'., M._._.~._._._.~.} W J U Z._._._._._._.=.6.).# ",
"'.'.  2.k.    '.+ G _._.u._._._.L.a F._._._._._._._._._.S h._.3 ",
"'.'.  S _.Q   '.  [ _._.M _._._._.S n._._._._._._._._._.Z._._.# ",
"'.'.'.P _.&.  '.  3._._.F._._._._.t.a M S _._._._._._._._._.).  ",
"'.'.  Q _.]   '.  8.>._._._._._._._.L.T.G M k | B.| Z.T.B.).&.  ",
"'.'.  e._.O.  '.    8 _._._.).).L._._._.F.Z.L.;     P 6 M Z.w   ",
"'.  k _._.M   '.'.'.k _._._._.n.G 3 J O.s.).T.R         6 w   '.",
"'.  8._.K.+   '.'.'.S )._._._._.k.        +     '.'.'.'.    '.'.",
"  U _._.(.l   '.'.'.6 W _.).).~.e.M   '.'.'.'.'.'.'.'.'.'.'.'.'.",
"# Z._._.@.  '.'.'.'.'.a _.).).e.-.k G ;   '.'.'.      '.'.'.'.'.",
"b _._._.i   '.'.'.'.'.r u.)._._._.Z.l -.b               '.'.'.'.",
"3 ~.).).F.k     '.  '.  3 h._._._.).~.2.] b 3           '.'.'.'.",
"  } ~.).).e._ l   i # J _._._.~.n.~.K.h.U R r       '.'.'.'.'.'.",
"  # B.F.h.n.).U.| _.x.6._._._.L._ M P [ Z._.2.  '.'.'.'.'.'.'.'.",
"'.  J _.).J $._._._._._._._._._._._._._._._._., '.'.'.'.      '.",
"'.'.  8.).U.=._._._._._._._._._._._._._._._.).  '.'.'.      '.'.",
"'.'.  8 Z._._._._._._._._.>.h._._.)._.T.Z.).k.    '.'.      '.'.",
"'.'.'.  k T._._._._._._._.3./ _._.).~.S s.6.k / k   '.      '.'.",
"'.'.'.'.  M h._._._._._.n.x s._._._.@.; + M B._.n.+ '.    '.'.'.",
"'.'.'.'.'.    # r r r 6 # >._._._._.G       + G x.,     '.'.'.'.",
"'.'.'.'.'.'.'.'.'.'.'.'.    3 k J R   '.'.'.'.        '.'.'.'.'.",
"'.'.'.'.'.'.'.'.'.'.'.'.'.              '.'.'.'.    '.'.'.'.'.'.",
"'.'.'.'.'.'.'.'.'.'.'.'.'.              '.'.'.'.'.'.'.'.'.'.'.'.",
"'.'.'.'.'.'.'.'.'.'.'.'.'.'.              '.'.'.'.'.'.'.'.'.'.'."
};
